<?xml version="1.0" standalone="no"?>
<!DOCTYPE svg PUBLIC "-//W3C//DTD SVG 20010904//EN"
 "http://www.w3.org/TR/2001/REC-SVG-20010904/DTD/svg10.dtd">
<svg version="1.0" xmlns="http://www.w3.org/2000/svg"
 width="1024.000000pt" height="1024.000000pt" viewBox="0 0 1024.000000 1024.000000"
 preserveAspectRatio="xMidYMid meet">

<g transform="translate(0.000000,1024.000000) scale(0.100000,-0.100000)"
fill="#000000" stroke="none">
<path d="M5288 8303 c7 -3 16 -2 19 1 4 3 -2 6 -13 5 -11 0 -14 -3 -6 -6z"/>
<path d="M4265 6505 c-27 -7 -89 -24 -137 -38 -48 -14 -109 -27 -137 -28 -88
-4 -82 -7 223 -120 87 -33 167 -59 178 -59 18 0 18 1 2 23 -10 13 -40 34 -67
47 -27 14 -51 29 -54 34 -7 10 18 27 29 20 4 -3 8 1 8 8 0 8 3 9 8 3 10 -15
56 -20 47 -5 -5 8 0 7 13 -1 18 -11 24 -10 40 4 10 9 22 14 26 10 4 -4 10 -2
14 4 4 7 31 13 60 14 28 2 52 6 52 10 0 4 10 11 23 15 20 6 18 9 -21 25 -111
48 -212 59 -307 34z"/>
<path d="M4630 6440 c8 -5 20 -10 25 -10 6 0 3 5 -5 10 -8 5 -19 10 -25 10 -5
0 -3 -5 5 -10z"/>
<path d="M4450 6230 c8 -5 20 -10 25 -10 6 0 3 5 -5 10 -8 5 -19 10 -25 10 -5
0 -3 -5 5 -10z"/>
<path d="M2635 5803 c-116 -59 -187 -118 -236 -195 l-30 -47 4 -1018 c3 -1010
3 -1019 25 -1102 63 -240 248 -464 556 -672 66 -45 126 -87 131 -92 15 -15
-10 0 -90 53 -38 26 -80 52 -93 59 -21 11 -22 10 -13 -6 5 -10 17 -36 27 -58
16 -36 109 -145 124 -145 3 0 30 -23 60 -50 30 -28 58 -50 63 -50 10 0 112
-69 146 -99 14 -12 66 -42 117 -66 51 -25 98 -51 106 -58 26 -26 107 -77 122
-77 8 0 21 -6 28 -13 7 -7 40 -26 73 -41 33 -16 68 -36 79 -45 10 -9 20 -15
22 -13 9 5 104 -41 104 -51 0 -6 3 -7 7 -4 3 4 15 -1 26 -10 11 -10 17 -12 13
-5 -7 11 -4 11 13 0 12 -7 21 -16 21 -20 0 -4 32 -17 70 -28 39 -11 70 -26 70
-32 0 -6 3 -9 6 -5 3 3 17 -5 31 -17 22 -21 215 -122 283 -148 23 -9 94 -41
131 -59 9 -4 63 -25 120 -48 105 -40 247 -64 371 -62 41 0 139 28 228 64 14 5
32 11 40 12 18 3 69 21 130 46 25 10 63 24 85 30 22 7 44 17 49 21 6 4 18 8
28 8 10 0 18 4 18 8 0 4 33 16 72 26 40 11 80 22 88 27 30 15 100 39 100 33 0
-3 12 4 26 15 15 12 35 21 45 21 11 0 19 4 19 8 0 5 19 18 43 29 74 35 142 64
150 63 11 -1 152 73 155 82 2 4 8 6 13 2 5 -3 9 0 9 5 0 6 7 11 16 11 25 0
335 166 342 182 2 4 10 8 18 8 8 0 23 9 34 20 11 11 20 18 20 15 0 -3 6 -1 13
5 54 45 93 70 104 66 7 -3 13 -1 13 5 0 5 8 13 18 16 9 4 32 18 50 31 17 13
32 20 32 16 0 -5 7 0 16 11 8 11 17 19 20 17 7 -4 64 31 64 40 0 4 14 21 31
37 16 16 29 36 27 44 -2 10 53 57 147 128 267 200 337 266 440 412 56 81 100
176 127 276 28 102 33 385 23 1410 l-7 783 -32 36 c-34 39 -171 144 -220 169
-44 22 -22 3 60 -50 73 -48 184 -152 184 -172 0 -19 -98 -114 -159 -153 -61
-39 -414 -216 -735 -369 -251 -119 -572 -272 -736 -351 -768 -368 -900 -413
-1199 -411 -89 1 -134 4 -116 9 17 4 26 8 21 9 -17 2 31 40 60 47 15 4 43 17
62 30 18 13 42 26 53 29 10 4 19 10 19 15 0 5 15 12 33 15 76 17 390 154 352
155 -5 0 17 13 50 29 73 36 68 40 -8 6 -78 -34 -216 -73 -322 -90 -233 -38
-478 2 -735 120 -139 64 -1115 534 -1505 725 -314 154 -376 213 -379 356 0 40
-3 74 -6 73 -3 0 -36 -16 -75 -36z m2333 -1480 c-10 -2 -26 -2 -35 0 -10 3 -2
5 17 5 19 0 27 -2 18 -5z m-1828 -1679 c0 -2 -9 0 -20 6 -11 6 -20 13 -20 16
0 2 9 0 20 -6 11 -6 20 -13 20 -16z"/>
<path d="M7549 5583 c-13 -16 -12 -17 4 -4 9 7 17 15 17 17 0 8 -8 3 -21 -13z"/>
</g>
</svg>
